/* XPM */
static char *_753781c89744033b497f707051f279f[] = {
/* columns rows colors chars-per-pixel */
"32 32 3 1 ",
"  c #933EFF",
". c #4184FC",
"X c None",
/* pixels */
"XXXXXXXXXXXXXXXXXXXXXXXXXXXXXXXX",
"XXXXXXXXXXXXXXXX  XXXXXXXXXXXXXX",
"XXXXXXXXXXXXXX     XXXXXXXXXXXXX",
"XXXXXXXXXXXX         XXXXXXXXXXX",
"XXXXXXXXXX             XXXXXXXXX",
"XXX                           XX",
"XX              X              X",
"XX            XXXXX            X",
"XX         XXXXXXXXXXX         X",
"XX     XXXXXXXXXXXXXXXXXXX     X",
"XX     XXXXXXXXXXXXXXXXXXX     X",
"XXX    XXXXXXXXXXXXXXXXXXX     X",
"XXX    XXXXXXXXXXXXXXXXXXX    XX",
"XXX    XXXXXXXXX.XXXXXXXXX    XX",
"XXX    XXXXXX.......XXXXXX    XX",
"XXX     XXXX.........XXXX     XX",
"XXXX   XXXXX..........XXXX   XXX",
"XXXX XXXX...............XXXX XXX",
"XXXXXXX...................XXXXXX",
"XXXXXX.........XXX.........XXXXX",
"XXXXX..........XXX..........XXXX",
"XXXXXX.........XXX.........XXXXX",
"XXXXXX..........XX.........XXXXX",
"XXXXXXX........XXX........XXXXXX",
"XXXXXXX........XXX........XXXXXX",
"XXXXXXXX.......XXX.......XXXXXXX",
"XXXXXXXXX...............XXXXXXXX",
"XXXXXXXXXX.............XXXXXXXXX",
"XXXXXXXXXXX...........XXXXXXXXXX",
"XXXXXXXXXXXX.........XXXXXXXXXXX",
"XXXXXXXXXXXXX.......XXXXXXXXXXXX",
"XXXXXXXXXXXXXX.....XXXXXXXXXXXXX"
};
