/* XPM */
static char *_6fa3ff0789e409cd8d0a3845d630470[] = {
/* columns rows colors chars-per-pixel */
"64 64 3 1 ",
"  c #933EFF",
". c #4184FC",
"X c None",
/* pixels */
"XXXXXXXXXXXXXXXXXXXXXXXXXXXXXXXXXXXXXXXXXXXXXXXXXXXXXXXXXXXXXXXX",
"XXXXXXXXXXXXXXXXXXXXXXXXXXXXXXXX  XXXXXXXXXXXXXXXXXXXXXXXXXXXXXX",
"XXXXXXXXXXXXXXXXXXXXXXXXXXXXXXX    XXXXXXXXXXXXXXXXXXXXXXXXXXXXX",
"XXXXXXXXXXXXXXXXXXXXXXXXXXXXX        XXXXXXXXXXXXXXXXXXXXXXXXXXX",
"XXXXXXXXXXXXXXXXXXXXXXXXXXXX          XXXXXXXXXXXXXXXXXXXXXXXXXX",
"XXXXXXXXXXXXXXXXXXXXXXXXXX              XXXXXXXXXXXXXXXXXXXXXXXX",
"XXXXXXXXXXXXXXXXXXXXXXXX                  XXXXXXXXXXXXXXXXXXXXXX",
"XXXXXXXXXXXXXXXXXXXXXX                      XXXXXXXXXXXXXXXXXXXX",
"XXXXXXXXXXXXXXXXXXX                            XXXXXXXXXXXXXXXXX",
"XXXXXXXXXXXXXXX                                     XXXXXXXXXXXX",
"XXXXX                                                        XXX",
"XXXXX                           XX                           XXX",
"XXXXX                         XXXXXX                          XX",
"XXXXX                       XXXXXXXXXX                        XX",
"XXXXX                     XXXXXXXXXXXXXX                      XX",
"XXXXX                   XXXXXXXXXXXXXXXXXXX                   XX",
"XXXXX               XXXXXXXXXXXXXXXXXXXXXXXXXX                XX",
"XXXXX           XXXXXXXXXXXXXXXXXXXXXXXXXXXXXXXXXX           XXX",
"XXXXX        XXXXXXXXXXXXXXXXXXXXXXXXXXXXXXXXXXXXXXXX        XXX",
"XXXXX        XXXXXXXXXXXXXXXXXXXXXXXXXXXXXXXXXXXXXXXX        XXX",
"XXXXX        XXXXXXXXXXXXXXXXXXXXXXXXXXXXXXXXXXXXXXXX        XXX",
"XXXXX        XXXXXXXXXXXXXXXXXXXXXXXXXXXXXXXXXXXXXXXX        XXX",
"XXXXX         XXXXXXXXXXXXXXXXXXXXXXXXXXXXXXXXXXXXXXX        XXX",
"XXXXX         XXXXXXXXXXXXXXXXXXXXXXXXXXXXXXXXXXXXXXX        XXX",
"XXXXXX        XXXXXXXXXXXXXXXXXXXXXXXXXXXXXXXXXXXXXX         XXX",
"XXXXXX        XXXXXXXXXXXXXXXXXXXXXXXXXXXXXXXXXXXXXX        XXXX",
"XXXXXX        XXXXXXXXXXXXXXXX......XXXXXXXXXXXXXXXX        XXXX",
"XXXXXX         XXXXXXXXXXXXX...........XXXXXXXXXXXXX        XXXX",
"XXXXXX         XXXXXXXXXXX..............XXXXXXXXXXX         XXXX",
"XXXXXXX        XXXXXXXXXX................XXXXXXXXXX        XXXXX",
"XXXXXXX        XXXXXXXXX..................XXXXXXXXX        XXXXX",
"XXXXXXX       XXXXXXXXXX...................XXXXXXXXXX      XXXXX",
"XXXXXXXX    XXXXXXXXXXX....................XXXXXXXXXXX     XXXXX",
"XXXXXXXX   XXXXXXXXXXXX.....................XXXXXXXXXXX   XXXXXX",
"XXXXXXXX  XXXXXXX.................................XXXXXX  XXXXXX",
"XXXXXXXXXXXXXXX.....................................XXXXXXXXXXXX",
"XXXXXXXXXXXXXX..................XX...................XXXXXXXXXXX",
"XXXXXXXXXXXXX..................XXXXX..................XXXXXXXXXX",
"XXXXXXXXXXXX..................XXXXXX...................XXXXXXXXX",
"XXXXXXXXXXX...................XXXXXXX..................XXXXXXXXX",
"XXXXXXXXXXX...................XXXXXXX..................XXXXXXXXX",
"XXXXXXXXXXX...................XXXXXX...................XXXXXXXXX",
"XXXXXXXXXXXX...................XXXXX..................XXXXXXXXXX",
"XXXXXXXXXXXX...................XXXX...................XXXXXXXXXX",
"XXXXXXXXXXXXX..................XXXXX.................XXXXXXXXXXX",
"XXXXXXXXXXXXXX.................XXXXX.................XXXXXXXXXXX",
"XXXXXXXXXXXXXX.................XXXXX................XXXXXXXXXXXX",
"XXXXXXXXXXXXXXX...............XXXXXX...............XXXXXXXXXXXXX",
"XXXXXXXXXXXXXXX...............XXXXXX...............XXXXXXXXXXXXX",
"XXXXXXXXXXXXXXXX..............XXXXXX..............XXXXXXXXXXXXXX",
"XXXXXXXXXXXXXXXXX.............XXXXXX.............XXXXXXXXXXXXXXX",
"XXXXXXXXXXXXXXXXXX...............................XXXXXXXXXXXXXXX",
"XXXXXXXXXXXXXXXXXXX.............................XXXXXXXXXXXXXXXX",
"XXXXXXXXXXXXXXXXXXX............................XXXXXXXXXXXXXXXXX",
"XXXXXXXXXXXXXXXXXXXX..........................XXXXXXXXXXXXXXXXXX",
"XXXXXXXXXXXXXXXXXXXXX........................XXXXXXXXXXXXXXXXXXX",
"XXXXXXXXXXXXXXXXXXXXXX......................XXXXXXXXXXXXXXXXXXXX",
"XXXXXXXXXXXXXXXXXXXXXXX....................XXXXXXXXXXXXXXXXXXXXX",
"XXXXXXXXXXXXXXXXXXXXXXXX..................XXXXXXXXXXXXXXXXXXXXXX",
"XXXXXXXXXXXXXXXXXXXXXXXXX................XXXXXXXXXXXXXXXXXXXXXXX",
"XXXXXXXXXXXXXXXXXXXXXXXXXX..............XXXXXXXXXXXXXXXXXXXXXXXX",
"XXXXXXXXXXXXXXXXXXXXXXXXXXXX...........XXXXXXXXXXXXXXXXXXXXXXXXX",
"XXXXXXXXXXXXXXXXXXXXXXXXXXXXX........XXXXXXXXXXXXXXXXXXXXXXXXXXX",
"XXXXXXXXXXXXXXXXXXXXXXXXXXXXXX......XXXXXXXXXXXXXXXXXXXXXXXXXXXX"
};
